<svg width="93" height="93" viewBox="0 0 93 93" fill="none" xmlns="http://www.w3.org/2000/svg">
<rect width="93" height="93" fill="#1E1E1E"/>
<path d="M93 0H0V93H93V0Z" fill="#ED0D86"/>
<path d="M61.342 59.3394C83.4678 91.3021 59.5096 72.0724 30 92.5C19.4132 50.7309 78.047 95.0546 55.9213 63.0918C33.7955 31.129 53.7278 -10.9477 93 16C75.8968 17.7681 39.2163 27.3766 61.342 59.3394Z" fill="#3443C6"/>
<path d="M90 14L93 16L82.5 18L77.5 19L73 20.5L67.5 23L63 26L59.5 29L57 32L56 34L55 36.5L54.5 39.5V45L57 52L58.5 54.5L63 62L68 70L70 74.5V77L68.5 79L66 80L63 80.5L53.5 82.5L46 84.5L38.5 87.5L30 92.5L29 87L28.5 83.5L29 80L30 77.5L32.5 74.5L38 73L44.5 73.5L55.5 75.5H59.5L61 74V72L58.5 67.5L56.5 64L51 54L49 49.5L48 45L47 40.5L46.5 35L47 28.5L48.5 23L51 18L52.5 15.5L54.5 13.5L55.5 12.5L57 11.5L58.5 10.5L60 9.5L62.5 8.5L64.5 8L66.5 7.5H68H69H70H71H71.5H72.5L75.5 8L77.5 8.5L79.5 9L81 9.5L82 10L85.5 11.5L87.5 12.5L90 14Z" stroke="black"/>
<path d="M53.8668 1L44 94L38.3618 62.5503L0 94L42.5905 10.8668L53.8668 1Z" fill="#CCFF00"/>
<path d="M42.5 11L0 94L38.5 63L44 94L51 27L54 1L42.5 11Z" stroke="black"/>
</svg>
